<svg width="1009" height="50" viewBox="0 0 1009 1037" fill="none" xmlns="http://www.w3.org/2000/svg">
<ellipse cx="504.5" cy="518.5" rx="504.5" ry="518.5" fill="#1E3B70"/>
<path d="M384.5 480.927H409.383V490.341H372.781V433.466H384.5V480.927ZM370.281 562.817C370.281 558.625 371.089 554.888 372.703 551.606C374.318 548.325 376.635 545.786 379.656 543.989C382.703 542.192 386.232 541.294 390.242 541.294C395.945 541.294 400.594 543.039 404.188 546.528C407.807 550.018 409.826 554.757 410.242 560.747L410.32 563.638C410.32 570.122 408.51 575.33 404.891 579.263C401.271 583.169 396.414 585.122 390.32 585.122C384.227 585.122 379.357 583.169 375.711 579.263C372.091 575.356 370.281 570.044 370.281 563.325V562.817ZM381.57 563.638C381.57 567.648 382.326 570.721 383.836 572.856C385.346 574.966 387.508 576.02 390.32 576.02C393.055 576.02 395.19 574.979 396.727 572.895C398.263 570.786 399.031 567.427 399.031 562.817C399.031 558.885 398.263 555.838 396.727 553.677C395.19 551.515 393.029 550.434 390.242 550.434C387.482 550.434 385.346 551.515 383.836 553.677C382.326 555.812 381.57 559.132 381.57 563.638ZM370.398 656.895C370.398 650.411 371.935 645.19 375.008 641.231C378.107 637.273 382.273 635.294 387.508 635.294C392.143 635.294 395.75 636.882 398.328 640.059L398.797 636.075H409.031V676.934C409.031 680.632 408.185 683.849 406.492 686.583C404.826 689.317 402.469 691.401 399.422 692.833C396.375 694.265 392.807 694.981 388.719 694.981C385.62 694.981 382.599 694.356 379.656 693.106C376.714 691.882 374.487 690.294 372.977 688.341L377.977 681.466C380.789 684.617 384.201 686.192 388.211 686.192C391.206 686.192 393.536 685.385 395.203 683.77C396.87 682.182 397.703 679.916 397.703 676.974V674.708C395.099 677.651 391.674 679.122 387.43 679.122C382.352 679.122 378.237 677.143 375.086 673.184C371.961 669.2 370.398 663.927 370.398 657.364V656.895ZM381.688 657.716C381.688 661.544 382.456 664.552 383.992 666.739C385.529 668.901 387.638 669.981 390.32 669.981C393.758 669.981 396.219 668.692 397.703 666.114V648.341C396.193 645.763 393.758 644.474 390.398 644.474C387.69 644.474 385.555 645.58 383.992 647.794C382.456 650.007 381.688 653.315 381.688 657.716ZM370.281 750.817C370.281 746.625 371.089 742.888 372.703 739.606C374.318 736.325 376.635 733.786 379.656 731.989C382.703 730.192 386.232 729.294 390.242 729.294C395.945 729.294 400.594 731.039 404.188 734.528C407.807 738.018 409.826 742.757 410.242 748.747L410.32 751.638C410.32 758.122 408.51 763.33 404.891 767.263C401.271 771.169 396.414 773.122 390.32 773.122C384.227 773.122 379.357 771.169 375.711 767.263C372.091 763.356 370.281 758.044 370.281 751.325V750.817ZM381.57 751.638C381.57 755.648 382.326 758.721 383.836 760.856C385.346 762.966 387.508 764.02 390.32 764.02C393.055 764.02 395.19 762.979 396.727 760.895C398.263 758.786 399.031 755.427 399.031 750.817C399.031 746.885 398.263 743.838 396.727 741.677C395.19 739.515 393.029 738.434 390.242 738.434C387.482 738.434 385.346 739.515 383.836 741.677C382.326 743.812 381.57 747.132 381.57 751.638ZM394.93 854.661C394.93 853.281 394.24 852.2 392.859 851.419C391.505 850.612 389.318 849.895 386.297 849.27C376.245 847.161 371.219 842.89 371.219 836.458C371.219 832.708 372.768 829.583 375.867 827.083C378.992 824.557 383.068 823.294 388.094 823.294C393.458 823.294 397.742 824.557 400.945 827.083C404.174 829.609 405.789 832.89 405.789 836.927H394.5C394.5 835.312 393.979 833.984 392.938 832.942C391.896 831.875 390.268 831.341 388.055 831.341C386.154 831.341 384.682 831.77 383.641 832.63C382.599 833.489 382.078 834.583 382.078 835.911C382.078 837.161 382.664 838.177 383.836 838.958C385.034 839.713 387.039 840.377 389.852 840.95C392.664 841.497 395.034 842.122 396.961 842.825C402.924 845.013 405.906 848.802 405.906 854.192C405.906 858.046 404.253 861.171 400.945 863.567C397.638 865.937 393.367 867.122 388.133 867.122C384.591 867.122 381.44 866.497 378.68 865.247C375.945 863.971 373.797 862.239 372.234 860.052C370.672 857.838 369.891 855.455 369.891 852.903H380.594C380.698 854.908 381.44 856.445 382.82 857.513C384.201 858.58 386.049 859.114 388.367 859.114C390.529 859.114 392.156 858.71 393.25 857.903C394.37 857.07 394.93 855.989 394.93 854.661Z" fill="white"/>
<path d="M253.428 274.775C253.428 205.918 309.248 150.098 378.105 150.098H506.174V399.452H378.105C309.248 399.452 253.428 343.632 253.428 274.775V274.775Z" fill="url(#paint0_linear)"/>
<path d="M253.426 524.098C253.426 455.241 309.246 399.421 378.103 399.421H506.172V648.775H378.103C309.246 648.775 253.426 592.955 253.426 524.098V524.098Z" fill="url(#paint1_linear)"/>
<path d="M253.426 774.343C253.426 705.485 309.246 649.666 378.103 649.666H506.172V899.02H378.103C309.246 899.02 253.426 843.2 253.426 774.343V774.343Z" fill="url(#paint2_linear)"/>
<path d="M759.401 274.773C759.668 343.63 704.065 399.661 635.208 399.921L507.14 400.405L506.172 151.052L634.24 150.568C703.097 150.308 759.133 205.917 759.401 274.773V274.773Z" fill="#23B8E6"/>
<path d="M757.594 772.592C757.861 841.449 702.259 897.479 633.402 897.74L505.334 898.224L504.366 648.871L632.434 648.387C701.29 648.127 757.327 703.735 757.594 772.592V772.592Z" fill="url(#paint3_linear)"/>
<ellipse cx="632.545" cy="524.097" rx="126.373" ry="124.677" fill="#56CCF2"/>
<defs>
<linearGradient id="paint0_linear" x1="253.428" y1="150.098" x2="555.705" y2="298.7" gradientUnits="userSpaceOnUse">
<stop stop-color="#14F1D9"/>
<stop offset="1" stop-color="#3672F8"/>
</linearGradient>
<linearGradient id="paint1_linear" x1="253.426" y1="399.421" x2="555.703" y2="548.023" gradientUnits="userSpaceOnUse">
<stop stop-color="#14F1D9"/>
<stop offset="1" stop-color="#3672F8"/>
</linearGradient>
<linearGradient id="paint2_linear" x1="253.426" y1="649.666" x2="555.703" y2="798.268" gradientUnits="userSpaceOnUse">
<stop stop-color="#14F1D9"/>
<stop offset="1" stop-color="#3672F8"/>
</linearGradient>
<linearGradient id="paint3_linear" x1="758.078" y1="897.269" x2="455.217" y2="749.829" gradientUnits="userSpaceOnUse">
<stop stop-color="#14F1D9"/>
<stop offset="1" stop-color="#3672F8"/>
</linearGradient>
</defs>
</svg>
